<svg width="105" height="20" viewBox="0 0 105 20" fill="none" xmlns="http://www.w3.org/2000/svg">
    <path d="M7.26172 15H4.24414V6.73828L4.27344 5.38086L4.32227 3.89648C3.82096 4.39779 3.47266 4.72656 3.27734 4.88281L1.63672 6.20117L0.181641 4.38477L4.78125 0.722656H7.26172V15ZM21.207 15H11.2266V12.9004L14.8105 9.27734C15.8717 8.1901 16.5651 7.43815 16.8906 7.02148C17.2161 6.59831 17.4505 6.20768 17.5938 5.84961C17.737 5.49154 17.8086 5.12044 17.8086 4.73633C17.8086 4.16341 17.6491 3.73698 17.3301 3.45703C17.0176 3.17708 16.5977 3.03711 16.0703 3.03711C15.5169 3.03711 14.9798 3.16406 14.459 3.41797C13.9382 3.67188 13.3945 4.0332 12.8281 4.50195L11.1875 2.55859C11.8906 1.95964 12.4733 1.53646 12.9355 1.28906C13.3978 1.04167 13.9023 0.852865 14.4492 0.722656C14.9961 0.585938 15.6081 0.517578 16.2852 0.517578C17.1771 0.517578 17.9648 0.680339 18.6484 1.00586C19.332 1.33138 19.8626 1.78711 20.2402 2.37305C20.6178 2.95898 20.8066 3.62956 20.8066 4.38477C20.8066 5.04232 20.6895 5.66081 20.4551 6.24023C20.2272 6.81315 19.8691 7.40234 19.3809 8.00781C18.8991 8.61328 18.0462 9.47591 16.8223 10.5957L14.9863 12.3242V12.4609H21.207V15ZM32.5547 7.86133C32.5547 10.3548 32.1445 12.2005 31.3242 13.3984C30.5104 14.5964 29.2539 15.1953 27.5547 15.1953C25.9076 15.1953 24.6641 14.5768 23.8242 13.3398C22.9909 12.1029 22.5742 10.2767 22.5742 7.86133C22.5742 5.3418 22.9811 3.48633 23.7949 2.29492C24.6087 1.09701 25.862 0.498047 27.5547 0.498047C29.2018 0.498047 30.4453 1.12305 31.2852 2.37305C32.1315 3.62305 32.5547 5.45247 32.5547 7.86133ZM25.5723 7.86133C25.5723 9.61263 25.722 10.8691 26.0215 11.6309C26.3275 12.3861 26.8385 12.7637 27.5547 12.7637C28.2578 12.7637 28.7656 12.3796 29.0781 11.6113C29.3906 10.8431 29.5469 9.5931 29.5469 7.86133C29.5469 6.11003 29.3874 4.85352 29.0684 4.0918C28.7559 3.32357 28.2513 2.93945 27.5547 2.93945C26.8451 2.93945 26.3372 3.32357 26.0312 4.0918C25.7253 4.85352 25.5723 6.11003 25.5723 7.86133ZM37.916 9.02344H34.1367V6.88477H37.916V3.07617H40.0547V6.88477H43.834V9.02344H40.0547V12.7832H37.916V9.02344ZM57.1152 6.98242H62.7793V14.3848C61.8613 14.6842 60.9954 14.8926 60.1816 15.0098C59.3743 15.1335 58.5475 15.1953 57.7012 15.1953C55.5462 15.1953 53.8991 14.5638 52.7598 13.3008C51.627 12.0312 51.0605 10.2116 51.0605 7.8418C51.0605 5.53711 51.7181 3.74023 53.0332 2.45117C54.3548 1.16211 56.1842 0.517578 58.5215 0.517578C59.9863 0.517578 61.3991 0.810547 62.7598 1.39648L61.7539 3.81836C60.7122 3.29753 59.6283 3.03711 58.502 3.03711C57.1934 3.03711 56.1452 3.47656 55.3574 4.35547C54.5697 5.23438 54.1758 6.41602 54.1758 7.90039C54.1758 9.44987 54.4915 10.6348 55.123 11.4551C55.7611 12.2689 56.6855 12.6758 57.8965 12.6758C58.528 12.6758 59.1693 12.6107 59.8203 12.4805V9.50195H57.1152V6.98242ZM64.3906 4.08203H67.6523L69.7129 10.2246C69.8887 10.7585 70.0091 11.39 70.0742 12.1191H70.1328C70.2044 11.4486 70.3444 10.8171 70.5527 10.2246L72.5742 4.08203H75.7676L71.1484 16.3965C70.7253 17.5358 70.1198 18.3887 69.332 18.9551C68.5508 19.5215 67.6361 19.8047 66.5879 19.8047C66.0736 19.8047 65.569 19.7493 65.0742 19.6387V17.2754C65.4323 17.36 65.8229 17.4023 66.2461 17.4023C66.7734 17.4023 67.2324 17.2396 67.623 16.9141C68.0202 16.5951 68.3294 16.11 68.5508 15.459L68.7266 14.9219L64.3906 4.08203ZM87.1152 15H84.1367V8.62305C84.1367 7.83529 84.0033 7.24609 83.7363 6.85547C83.4759 6.45833 83.0625 6.25977 82.4961 6.25977C81.7344 6.25977 81.181 6.53971 80.8359 7.09961C80.4909 7.65951 80.3184 8.58073 80.3184 9.86328V15H77.3398V4.08203H79.6152L80.0156 5.47852H80.1816C80.4746 4.97721 80.8978 4.58659 81.4512 4.30664C82.0046 4.02018 82.6393 3.87695 83.3555 3.87695C84.9896 3.87695 86.0964 4.41081 86.6758 5.47852H86.9395C87.2324 4.9707 87.6621 4.57682 88.2285 4.29688C88.8014 4.01693 89.446 3.87695 90.1621 3.87695C91.3991 3.87695 92.3333 4.19596 92.9648 4.83398C93.6029 5.46549 93.9219 6.48112 93.9219 7.88086V15H90.9336V8.62305C90.9336 7.83529 90.8001 7.24609 90.5332 6.85547C90.2728 6.45833 89.8594 6.25977 89.293 6.25977C88.5638 6.25977 88.0169 6.52018 87.6523 7.04102C87.2943 7.56185 87.1152 8.38867 87.1152 9.52148V15ZM104.605 11.7578C104.605 12.8776 104.215 13.7305 103.434 14.3164C102.659 14.9023 101.497 15.1953 99.9473 15.1953C99.153 15.1953 98.4759 15.14 97.916 15.0293C97.3561 14.9251 96.832 14.7689 96.3438 14.5605V12.0996C96.8971 12.36 97.5189 12.5781 98.209 12.7539C98.9056 12.9297 99.5176 13.0176 100.045 13.0176C101.126 13.0176 101.666 12.7051 101.666 12.0801C101.666 11.8457 101.594 11.6569 101.451 11.5137C101.308 11.3639 101.061 11.1979 100.709 11.0156C100.357 10.8268 99.8887 10.6087 99.3027 10.3613C98.4629 10.0098 97.8444 9.68424 97.4473 9.38477C97.0566 9.08529 96.7702 8.74349 96.5879 8.35938C96.4121 7.96875 96.3242 7.49023 96.3242 6.92383C96.3242 5.95378 96.6986 5.20508 97.4473 4.67773C98.2025 4.14388 99.2702 3.87695 100.65 3.87695C101.965 3.87695 103.245 4.16341 104.488 4.73633L103.59 6.88477C103.043 6.65039 102.532 6.45833 102.057 6.30859C101.581 6.15885 101.096 6.08398 100.602 6.08398C99.7227 6.08398 99.2832 6.32161 99.2832 6.79688C99.2832 7.0638 99.4232 7.29492 99.7031 7.49023C99.9896 7.68555 100.611 7.97526 101.568 8.35938C102.421 8.70443 103.046 9.02669 103.443 9.32617C103.84 9.62565 104.133 9.9707 104.322 10.3613C104.511 10.752 104.605 11.2174 104.605 11.7578Z" fill="#E4AD2B" />
</svg>
