<svg width="157" height="50" viewBox="0 0 157 50" fill="none" xmlns="http://www.w3.org/2000/svg">
    <path fill-rule="evenodd" clip-rule="evenodd" d="M7.73389 0.544434C8.88632 0.544434 9.81455 1.48524 9.81455 2.63767V8.26363C9.81455 9.42025 8.88422 10.359 7.73598 10.359H2.0765C1.80253 10.3579 1.53147 10.3028 1.27881 10.1969C1.02615 10.0909 0.796836 9.93625 0.60399 9.74166C0.411144 9.54706 0.258543 9.31636 0.154911 9.06275C0.0512786 8.80914 -0.00135251 8.53759 2.64099e-05 8.26363V2.63767C0.00212174 1.48524 0.930353 0.544434 2.0765 0.544434H7.73389ZM8.16762 16.3537H2.19593C1.90959 16.3518 1.62567 16.4063 1.3604 16.5141C1.09514 16.622 0.85374 16.7811 0.649998 16.9823C0.446255 17.1835 0.284167 17.4229 0.173 17.6868C0.0618332 17.9507 0.00376726 18.2339 0.00212174 18.5203V48.5149H8.16762C8.74521 48.5182 9.3005 48.2921 9.71146 47.8863C10.1224 47.4804 10.3555 46.928 10.3593 46.3504V18.5203C10.3577 18.2341 10.2997 17.951 10.1887 17.6873C10.0776 17.4235 9.91572 17.1842 9.7122 16.983C9.50868 16.7819 9.26752 16.6227 9.0025 16.5147C8.73748 16.4068 8.45379 16.352 8.16762 16.3537Z" fill="#1495D3" />
    <path opacity="0.798" fill-rule="evenodd" clip-rule="evenodd" d="M43.0391 0L27.8857 0.343634C18.5887 0.662124 14.8883 7.50128 14.8883 14.156L14.7207 48.5153H23.1963C24.4158 48.5153 25.4048 47.5451 25.4048 46.3424L25.3063 32.7542C25.3063 31.5117 26.1905 30.5771 27.4519 30.5771H35.4519C36.6735 30.5771 37.6625 29.6049 37.6625 28.4064V23.4824C37.6625 22.2817 36.6735 21.3116 35.4519 21.3116H25.3524V15.5473C25.3524 12.0649 27.211 10.6275 31.3807 10.6275L43.0391 10.6003C44.2586 10.6003 45.2476 9.62804 45.2476 8.42741V2.17286C45.2476 0.974328 44.2586 0 43.0412 0H43.0391ZM58.3182 0.544786H52.3465C51.1354 0.544786 50.1548 1.5233 50.1548 2.7344V49.0621H58.3182C59.5314 49.0621 60.512 48.0815 60.512 46.8725V2.7344C60.512 1.5233 59.5314 0.544786 58.3182 0.544786ZM93.6434 14.156C93.6434 7.50337 89.9409 0.662124 80.6356 0.341539L67.6341 0C66.4125 0 65.4193 0.972233 65.4193 2.17286V8.42951C65.4193 9.63013 66.4125 10.6024 67.6341 10.6024L77.1343 10.6317C81.3103 10.6317 83.1688 12.0649 83.1688 15.5473L82.9949 48.5153H91.5501C92.7759 48.5153 93.7649 47.5451 93.7649 46.3445L93.6455 14.156H93.6434ZM108.996 0C108.996 0 95.2924 0.314299 93.503 0.314299C91.9482 0.440019 91.7366 1.49397 92.7487 2.43477C96.2793 5.5191 96.7738 10.5563 96.7738 10.7993L108.996 10.9041C110.22 10.9041 111.209 9.89624 111.209 8.65162V2.25457C111.209 1.00576 110.22 0 108.996 0Z" fill="#2E3134" />
    <path fill-rule="evenodd" clip-rule="evenodd" d="M156.08 22.233L148.774 15.2074C147.731 14.3357 146.93 14.7003 146.827 15.7396C146.817 15.8527 146.819 16.2969 146.815 16.3933C146.745 18.5249 146.179 20.6108 145.16 22.4844C143.754 25.0784 141.189 27.0627 139.079 29.091C132.15 35.75 119.383 47.9699 119.383 47.9699H132.992C133.763 47.9699 134.505 47.6703 135.056 47.1339L156.08 26.5976C156.371 26.3134 156.602 25.974 156.76 25.5992C156.918 25.2244 156.999 24.8219 156.999 24.4153C156.999 24.0086 156.918 23.6061 156.76 23.2313C156.602 22.8566 156.371 22.5171 156.08 22.233Z" fill="#1495D3" />
    <path fill-rule="evenodd" clip-rule="evenodd" d="M140.822 7.03184C140.594 6.75944 135.697 1.79351 135.697 1.79351C135.519 1.61934 135.33 1.45695 135.131 1.3074C134.481 0.803651 133.68 0.534819 132.858 0.544696H119.385L128.831 9.65938L131.445 12.1738L141.369 21.7138C141.516 21.8563 141.765 21.8291 141.872 21.6551C144.501 17.4289 145.029 12.0669 140.822 7.03184Z" fill="#1495D3" />
</svg>
