<svg width="23" height="25" viewBox="0 0 23 25" fill="none" xmlns="http://www.w3.org/2000/svg">
    <path d="M21.6675 23.3511H20.6854V1.97607C20.6854 1.35475 20.1578 0.851074 19.5068 0.851074H3.00684C2.35592 0.851074 1.82826 1.35475 1.82826 1.97607V23.3511H0.846122C0.520689 23.3511 0.256836 23.6029 0.256836 23.9136V24.8511H22.2568V23.9136C22.2568 23.6029 21.993 23.3511 21.6675 23.3511ZM6.54255 4.41357C6.54255 4.10293 6.8064 3.85107 7.13184 3.85107H9.09612C9.42155 3.85107 9.68541 4.10293 9.68541 4.41357V6.28857C9.68541 6.59922 9.42155 6.85107 9.09612 6.85107H7.13184C6.8064 6.85107 6.54255 6.59922 6.54255 6.28857V4.41357ZM6.54255 8.91357C6.54255 8.60293 6.8064 8.35107 7.13184 8.35107H9.09612C9.42155 8.35107 9.68541 8.60293 9.68541 8.91357V10.7886C9.68541 11.0992 9.42155 11.3511 9.09612 11.3511H7.13184C6.8064 11.3511 6.54255 11.0992 6.54255 10.7886V8.91357ZM9.09612 15.8511H7.13184C6.8064 15.8511 6.54255 15.5992 6.54255 15.2886V13.4136C6.54255 13.1029 6.8064 12.8511 7.13184 12.8511H9.09612C9.42155 12.8511 9.68541 13.1029 9.68541 13.4136V15.2886C9.68541 15.5992 9.42155 15.8511 9.09612 15.8511ZM12.8283 23.3511H9.68541V19.4136C9.68541 19.1029 9.94926 18.8511 10.2747 18.8511H12.239C12.5644 18.8511 12.8283 19.1029 12.8283 19.4136V23.3511ZM15.9711 15.2886C15.9711 15.5992 15.7073 15.8511 15.3818 15.8511H13.4176C13.0921 15.8511 12.8283 15.5992 12.8283 15.2886V13.4136C12.8283 13.1029 13.0921 12.8511 13.4176 12.8511H15.3818C15.7073 12.8511 15.9711 13.1029 15.9711 13.4136V15.2886ZM15.9711 10.7886C15.9711 11.0992 15.7073 11.3511 15.3818 11.3511H13.4176C13.0921 11.3511 12.8283 11.0992 12.8283 10.7886V8.91357C12.8283 8.60293 13.0921 8.35107 13.4176 8.35107H15.3818C15.7073 8.35107 15.9711 8.60293 15.9711 8.91357V10.7886ZM15.9711 6.28857C15.9711 6.59922 15.7073 6.85107 15.3818 6.85107H13.4176C13.0921 6.85107 12.8283 6.59922 12.8283 6.28857V4.41357C12.8283 4.10293 13.0921 3.85107 13.4176 3.85107H15.3818C15.7073 3.85107 15.9711 4.10293 15.9711 4.41357V6.28857Z" fill="#E4AD2B" />
</svg>
