<svg width="470" height="420" viewBox="0 0 470 420" fill="none" xmlns="http://www.w3.org/2000/svg">
    <path d="M19.1594 419.016C54.6796 408.851 121.773 388.961 191.437 365.303C193.364 371.436 195.108 377.132 196.577 381.601C199.33 390.1 209.335 394.043 217.595 389.925C256.512 370.56 357.841 317.548 414.379 265.062C415.389 264.186 416.674 263.31 417.592 262.434C452.561 229.137 470 185.413 470 141.689C470 98.0533 452.561 54.3295 417.683 20.9453C382.806 -12.3514 337.006 -29.0873 291.206 -28.9997C245.406 -28.9997 199.606 -12.3514 164.636 21.0329C163.718 21.9091 162.801 23.1359 161.883 24.0997C106.996 78.0753 51.3753 174.899 31.0912 211.963C26.7774 219.849 30.9076 229.4 39.8107 232.029C44.5834 233.431 50.4575 235.095 56.8824 236.935C32.1009 303.529 11.266 367.493 0.619139 401.403C-2.68506 412.269 7.77823 422.258 19.1594 419.016Z" fill="#969696" fill-opacity="0.15" />
</svg>
