<svg width="22" height="24" viewBox="0 0 22 24" fill="none" xmlns="http://www.w3.org/2000/svg">
    <path d="M21.3722 16.9589L16.5597 14.7089C16.3541 14.6134 16.1257 14.5932 15.9087 14.6515C15.6917 14.7099 15.4979 14.8435 15.3566 15.0324L13.2254 17.873C9.88055 16.1526 7.18876 13.2161 5.61172 9.56722L8.21562 7.24222C8.38908 7.08832 8.51185 6.87696 8.56535 6.64014C8.61884 6.40331 8.60015 6.15392 8.51211 5.92972L6.44961 0.67973C6.35298 0.438047 6.18207 0.240721 5.96636 0.121777C5.75065 0.00283366 5.50366 -0.0302721 5.26797 0.0281687L0.799219 1.15317C0.571987 1.21041 0.36925 1.34999 0.224097 1.54911C0.0789444 1.74824 -5.2345e-05 1.99516 2.60228e-08 2.24957C2.60228e-08 14.273 8.9332 23.9995 19.9375 23.9995C20.1708 23.9997 20.3972 23.9136 20.5799 23.7552C20.7625 23.5969 20.8905 23.3756 20.943 23.1277L21.9742 18.2527C22.0274 17.9943 21.9965 17.7238 21.8866 17.4877C21.7767 17.2515 21.5948 17.0646 21.3722 16.9589Z" fill="#E4AD2B" />
</svg>
