<svg width="62" height="58" viewBox="0 0 62 58" fill="none" xmlns="http://www.w3.org/2000/svg">
    <path d="M3.2252 57.6018C7.79209 56.295 16.4184 53.7377 25.3752 50.6959C25.623 51.4845 25.8472 52.2168 26.036 52.7913C26.3901 53.8841 27.6763 54.3911 28.7384 53.8616C33.7419 51.3719 46.7699 44.5561 54.0392 37.8078C54.169 37.6952 54.3342 37.5825 54.4522 37.4699C58.9483 33.1889 61.1904 27.5672 61.1904 21.9456C61.1904 16.3353 58.9483 10.7136 54.464 6.42137C49.9797 2.14037 44.0912 -0.011393 38.2026 -0.00012769C32.314 -0.000127175 26.4254 2.14037 21.9294 6.43264C21.8114 6.54529 21.6934 6.70301 21.5753 6.82694C14.5185 13.7667 7.36726 26.2154 4.75929 30.9808C4.20466 31.9947 4.73569 33.2227 5.88037 33.5606C6.494 33.7409 7.24925 33.955 8.0753 34.1915C4.88911 42.7535 2.21034 50.9776 0.841453 55.3374C0.41663 56.7344 1.76191 58.0187 3.2252 57.6018Z" fill="url(#paint0_linear)" />
    <ellipse cx="37.0538" cy="21.9948" rx="9.67779" ry="9.07293" fill="white" />
    <defs>
        <linearGradient id="paint0_linear" x1="-1.98489" y1="75.5355" x2="79.0443" y2="-15.1073" gradientUnits="userSpaceOnUse">
            <stop stop-color="#BF4527" />
            <stop offset="1" stop-color="#E4AD2B" />
        </linearGradient>
    </defs>
</svg>
